<svg width="40" height="40" viewBox="0 0 40 40" fill="none" xmlns="http://www.w3.org/2000/svg">
<path fill-rule="evenodd" clip-rule="evenodd" d="M28.7324 0.241434C29.4516 -0.0451041 30.2299 -0.0770671 31.0366 0.148089C31.9685 0.408205 32.6854 0.938664 33.1773 1.67992C33.6558 2.40095 33.8867 3.26729 33.9664 4.16812C34.1244 5.95294 33.7084 8.1175 33.0707 10.2482C31.9257 14.0744 29.9628 18.1186 28.6741 20.3861C31.1092 22.5065 32.9304 25.7318 33.1782 30.2282C33.3092 32.6053 32.7523 34.4727 31.7242 35.9074C30.7055 37.3292 29.2828 38.2447 27.8132 38.8372C24.9285 40.0002 21.6449 40.0001 20.1971 40H20.1333C18.6835 40.0001 15.2544 40.0002 12.2398 38.8431C10.7082 38.2553 9.21762 37.3451 8.15388 35.9237C7.07674 34.4843 6.50096 32.6052 6.66817 30.2138C6.97369 25.8442 8.84336 22.606 11.362 20.4494C10.0814 18.2072 8.11012 14.1611 6.95164 10.3226C6.30453 8.17856 5.87885 5.99776 6.03087 4.19952C6.10757 3.29217 6.33618 2.41911 6.81447 1.6924C7.30641 0.944956 8.0259 0.409774 8.96343 0.148089C9.77311 -0.0779082 10.5541 -0.0448083 11.2752 0.244457C11.9825 0.528202 12.5657 1.03123 13.0453 1.63858C13.9886 2.83295 14.6471 4.57846 15.122 6.48243C15.97 9.88174 16.3163 14.1434 16.4161 17.7176C17.6748 17.3459 18.9482 17.163 20.1638 17.163C21.2488 17.163 22.4143 17.3206 23.5858 17.6515C23.6884 14.0771 24.0379 9.82668 24.8884 6.44097C25.364 4.54741 26.0226 2.81223 26.965 1.62549C27.4444 1.02193 28.0267 0.522589 28.7324 0.241434ZM26.7577 6.91799C25.8553 10.5102 25.5352 15.243 25.4862 19.004L25.468 20.4083L24.1706 19.8962C22.7971 19.354 21.402 19.1065 20.1638 19.1065C18.7801 19.1065 17.2835 19.3881 15.8388 19.9741L14.5318 20.5043L14.5148 19.0844C14.4695 15.325 14.1535 10.5703 13.252 6.95638C12.7976 5.13487 12.2204 3.71478 11.5367 2.84903C11.2028 2.42631 10.8747 2.17565 10.5621 2.05027C10.2633 1.93041 9.91592 1.89895 9.47805 2.02117C8.97742 2.16091 8.65042 2.41875 8.42134 2.76681C8.17862 3.13559 8.0117 3.66052 7.95219 4.36452C7.83177 5.789 8.17091 7.68437 8.79645 9.757C10.0402 13.8779 12.2893 18.2989 13.4406 20.1692L13.9083 20.929L13.196 21.4619C10.7755 23.2728 8.88362 26.1751 8.59168 30.3504C8.45312 32.3321 8.92964 33.7328 9.69333 34.7533C10.4704 35.7916 11.6092 36.5214 12.926 37.0268C15.5867 38.048 18.703 38.0564 20.1638 38.0564C21.626 38.0564 24.5807 38.0472 27.097 37.0327C28.339 36.5319 29.4171 35.8076 30.161 34.7695C30.8955 33.7444 31.3629 32.332 31.2529 30.336C31.0143 26.0068 29.155 23.1438 26.8406 21.3915L26.1383 20.8597L26.5984 20.1055C27.7693 18.1861 29.9998 13.7794 31.2246 9.68693C31.8407 7.62831 32.1705 5.75053 32.0458 4.34077C31.9841 3.64431 31.8166 3.12531 31.5745 2.76054C31.3459 2.41599 31.02 2.16018 30.5219 2.02117C30.0855 1.89936 29.7391 1.93025 29.4413 2.04892C29.1299 2.17297 28.8031 2.42119 28.4704 2.84006C27.7889 3.69819 27.2125 5.10741 26.7577 6.91799Z" fill="black"/>
</svg>
